<?xml version="1.0" standalone="no"?>
<!DOCTYPE svg PUBLIC "-//W3C//DTD SVG 20010904//EN"
 "http://www.w3.org/TR/2001/REC-SVG-20010904/DTD/svg10.dtd">
<svg version="1.0" xmlns="http://www.w3.org/2000/svg"
 width="1024.000000pt" height="1024.000000pt" viewBox="0 0 1024.000000 1024.000000"
 preserveAspectRatio="xMidYMid meet">
<metadata>
Created by potrace 1.11, written by Peter Selinger 2001-2013
</metadata>
<g transform="translate(0.000000,1024.000000) scale(0.100000,-0.100000)"
fill="#000000" stroke="none">
<path d="M5005 10218 c-58 -21 -82 -43 -870 -833 -445 -446 -820 -823 -831
-836 -29 -33 -89 -155 -104 -209 -19 -70 -20 -76 -35 -245 -2 -27 -5 -50 -5
-50 -1 0 -3 -16 -4 -35 -4 -50 -16 -168 -22 -215 -2 -22 -7 -67 -10 -100 -2
-33 -7 -82 -10 -110 -13 -131 -20 -209 -28 -300 -2 -27 -7 -75 -11 -105 -6
-56 -9 -83 -20 -205 -4 -38 -9 -90 -12 -115 -2 -25 -6 -63 -8 -85 -3 -45 -14
-150 -21 -210 -3 -22 -7 -67 -9 -100 -2 -33 -6 -80 -9 -105 -7 -56 -17 -154
-21 -200 -4 -43 -15 -151 -20 -205 -2 -22 -7 -69 -9 -105 -3 -36 -8 -83 -11
-105 -3 -22 -8 -67 -11 -100 -8 -95 -12 -136 -20 -200 -4 -33 -8 -80 -10 -105
-9 -112 -14 -168 -18 -200 -6 -43 -13 -122 -21 -215 -3 -38 -8 -83 -10 -100
-2 -16 -7 -61 -10 -100 -10 -110 -14 -150 -15 -150 -2 0 -9 -73 -14 -155 -3
-41 -6 -75 -7 -75 0 0 -2 -11 -4 -25 -2 -26 -13 -135 -21 -210 -2 -25 -6 -64
-9 -86 -3 -23 -7 -73 -10 -110 -3 -38 -7 -85 -10 -104 -2 -19 -7 -66 -10 -105
-7 -74 -9 -93 -20 -195 -3 -36 -8 -83 -10 -105 -2 -22 -7 -67 -10 -100 -4 -33
-8 -82 -11 -110 -5 -57 -11 -125 -19 -199 -10 -104 -19 -202 -19 -218 0 -10
-3 -18 -6 -18 -3 0 -5 -21 -6 -48 0 -44 -9 -143 -19 -222 -2 -19 -7 -66 -10
-105 -6 -67 -10 -112 -20 -200 -8 -67 -17 -178 -19 -220 l-1 -40 50 -2 c28 -1
64 -2 80 -3 17 0 71 -1 120 -1 50 0 97 0 105 0 8 0 71 0 140 0 69 -1 143 0
165 1 116 5 135 4 135 -2 0 -4 6 -5 13 -3 21 9 147 11 147 3 0 -4 6 -5 13 -3
22 9 147 10 147 2 0 -5 5 -5 10 -2 9 5 307 9 335 5 6 -1 21 -1 34 0 72 6 251
4 251 -3 0 -5 4 -6 9 -3 9 6 164 10 186 6 6 -1 14 -2 20 -1 5 2 45 2 90 1 44
0 88 -1 98 -1 9 0 64 0 122 0 58 0 111 0 118 0 130 0 472 0 502 1 22 1 66 2
98 3 31 1 57 -1 57 -5 0 -4 6 -5 13 -2 23 8 287 9 287 1 0 -5 5 -5 10 -2 6 4
50 6 98 5 48 -1 94 -1 102 -1 8 0 71 0 140 0 69 0 130 0 135 0 6 0 69 0 140 1
72 0 153 0 180 0 28 0 78 1 113 3 34 1 62 -1 62 -5 0 -4 6 -5 13 -2 23 8 287
9 287 1 0 -5 4 -6 9 -3 9 6 164 10 186 6 6 -1 15 -1 20 0 26 5 255 1 265 -5 7
-4 9 10 5 47 -3 29 -8 78 -10 108 -5 57 -10 114 -21 215 -4 33 -8 76 -9 95 -3
37 -13 138 -20 205 -3 22 -8 67 -10 100 -6 59 -9 96 -20 204 -10 102 -16 166
-20 211 -4 47 -11 121 -21 205 -3 28 -8 73 -10 100 -6 77 -15 171 -29 305 -3
25 -7 74 -10 110 -3 36 -8 83 -11 105 -4 22 -7 63 -9 90 -3 48 -8 91 -22 215
-3 30 -6 66 -7 80 -1 14 -5 31 -9 38 -5 7 -3 12 3 12 6 0 9 4 6 9 -7 10 -18
109 -31 261 -3 36 -7 81 -10 100 -2 19 -7 64 -10 100 -4 36 -8 81 -10 100 -2
19 -7 69 -10 110 -7 84 -13 129 -21 142 -3 4 0 8 6 8 6 0 8 5 5 10 -7 11 -9
30 -20 140 -3 36 -8 85 -10 110 -3 25 -7 68 -10 96 -2 27 -6 70 -9 95 -6 41
-10 95 -21 229 -3 30 -7 73 -10 95 -6 41 -11 86 -20 190 -2 33 -7 77 -10 98
-3 22 -8 69 -10 105 -3 37 -7 83 -9 102 -2 19 -7 64 -10 100 -4 36 -9 88 -12
115 -4 28 -8 73 -10 100 -4 61 -12 146 -18 200 -3 22 -8 74 -11 115 -3 41 -8
84 -10 95 -2 11 -7 61 -10 110 -4 50 -9 92 -10 95 -3 5 -14 124 -21 215 -1 22
-3 40 -4 40 -1 0 -3 25 -5 55 -2 30 -6 71 -9 91 -3 20 -8 68 -11 105 -7 74
-14 153 -19 194 -2 14 -6 59 -10 102 -4 42 -11 90 -16 107 -5 17 -7 31 -5 31
4 0 -14 47 -46 116 -10 23 -35 64 -55 90 -64 85 -1636 1650 -1674 1666 -62 28
-74 31 -140 34 -47 2 -81 -3 -125 -18z m-485 -5097 c0 5 11 4 25 -1 14 -5 25
-6 25 -2 0 8 163 8 177 -1 5 -3 15 -2 22 3 8 4 27 4 42 0 17 -5 29 -5 29 0 0
6 10 6 25 0 14 -5 25 -6 25 -2 0 8 168 8 177 -1 3 -4 13 -2 22 2 20 11 30 11
59 0 12 -5 22 -5 22 0 0 5 16 5 35 1 19 -4 35 -5 35 -1 0 3 25 6 55 6 30 0 55
-3 55 -7 0 -4 11 -3 25 2 15 6 27 6 30 0 3 -5 11 -7 18 -5 22 9 117 11 117 3
0 -4 11 -3 25 2 15 6 26 6 30 0 4 -6 13 -7 24 -1 9 5 23 6 31 1 7 -4 24 -4 36
0 14 6 26 5 29 -1 4 -6 13 -6 23 0 10 6 23 6 34 0 10 -6 19 -5 23 1 3 5 15 6
28 2 12 -5 29 -8 37 -7 19 2 98 -37 128 -63 58 -51 86 -117 91 -212 2 -30 5
-58 7 -62 2 -3 1 -9 -4 -12 -4 -3 -5 -30 -2 -60 3 -31 3 -61 0 -66 -3 -5 -3
-31 0 -57 3 -27 3 -83 0 -126 -3 -43 -2 -85 1 -94 3 -9 3 -35 -1 -57 -3 -23
-3 -52 0 -66 3 -14 3 -43 0 -65 -3 -22 -3 -51 0 -65 11 -45 -22 -124 -75 -181
-51 -56 -125 -89 -193 -86 -28 1 -52 -1 -52 -4 0 -4 -17 -3 -38 1 -20 3 -49 3
-64 -1 -15 -4 -29 -5 -32 -2 -3 3 -26 6 -51 6 -25 0 -48 -3 -51 -6 -3 -3 -17
-2 -32 2 -15 4 -44 4 -64 1 -21 -4 -40 -5 -43 -2 -5 5 -107 6 -131 1 -5 -1
-13 -1 -19 1 -11 2 -70 2 -183 0 -41 -1 -76 0 -79 3 -2 3 -17 1 -33 -3 -16 -4
-31 -6 -34 -3 -7 7 -95 8 -102 0 -3 -3 -17 -2 -32 2 -15 4 -44 4 -64 1 -21 -4
-40 -5 -43 -2 -7 7 -133 4 -145 -3 -6 -3 -10 -3 -10 2 0 4 -35 8 -78 9 -90 0
-129 16 -190 74 -23 22 -38 40 -35 40 3 0 -1 8 -10 18 -31 35 -40 111 -36 312
0 30 0 62 0 70 0 19 0 211 1 225 0 6 -1 35 -2 65 -1 30 0 107 2 170 3 104 6
119 31 157 53 83 114 126 195 139 20 3 38 7 40 8 1 2 22 0 47 -4 25 -4 45 -3
45 1z"/>
<path d="M1600 1280 c0 -3 -20 -6 -45 -7 -103 -3 -219 -99 -256 -210 -19 -58
-20 -80 -17 -446 2 -307 6 -387 17 -400 7 -10 10 -17 6 -17 -4 0 -2 -7 5 -15
7 -8 10 -15 6 -15 -3 0 2 -10 12 -22 37 -48 92 -94 138 -118 l49 -25 3585 -3
c3517 -2 3586 -2 3642 17 57 19 66 25 117 71 33 30 80 102 84 130 2 11 6 22
10 26 11 12 8 759 -4 796 -43 131 -149 225 -266 233 -24 1 -46 5 -49 8 -4 3
-17 2 -30 -3 -13 -5 -24 -6 -24 -2 0 4 -13 7 -30 7 -16 0 -30 -3 -30 -7 0 -4
-13 -3 -29 2 -15 4 -34 4 -42 0 -7 -5 -18 -6 -23 -3 -13 9 -142 7 -155 -2 -6
-3 -11 -3 -11 2 0 4 -13 8 -30 8 -16 0 -30 -3 -30 -7 0 -4 -13 -3 -29 2 -15 4
-34 4 -42 0 -7 -5 -18 -6 -23 -3 -13 9 -142 7 -155 -2 -6 -3 -11 -3 -11 2 0 4
-13 8 -30 8 -16 0 -30 -3 -30 -7 0 -4 -13 -3 -29 2 -15 4 -34 4 -42 0 -7 -5
-18 -6 -24 -2 -11 7 -112 5 -124 -2 -4 -3 -13 -1 -21 4 -8 5 -21 5 -31 -1 -11
-6 -20 -5 -24 1 -3 6 -15 6 -29 0 -13 -5 -26 -7 -28 -5 -8 8 -108 11 -108 4 0
-4 -14 -4 -30 1 -18 5 -30 5 -30 0 0 -6 -10 -6 -25 0 -15 6 -27 6 -30 0 -3 -6
-15 -6 -30 0 -15 6 -27 6 -30 0 -4 -6 -13 -7 -23 -1 -11 6 -24 6 -34 0 -10 -6
-19 -6 -23 0 -3 7 -15 7 -30 1 -15 -6 -27 -6 -30 0 -3 6 -15 6 -30 0 -14 -5
-25 -6 -25 -2 0 4 -25 7 -55 7 -30 0 -55 -3 -55 -7 0 -4 -13 -3 -30 2 -18 5
-30 5 -30 0 0 -6 -10 -6 -25 0 -15 6 -27 6 -30 0 -3 -6 -15 -6 -30 0 -15 6
-27 6 -30 0 -4 -6 -13 -7 -23 -1 -11 6 -24 6 -34 0 -10 -6 -19 -6 -23 0 -3 7
-15 7 -30 1 -15 -6 -27 -6 -30 0 -3 6 -15 6 -30 0 -14 -5 -25 -6 -25 -2 0 4
-25 7 -55 7 -30 0 -55 -3 -55 -7 0 -4 -13 -3 -30 2 -18 5 -30 5 -30 0 0 -6
-10 -6 -25 0 -15 6 -27 6 -30 0 -3 -6 -15 -6 -30 0 -15 6 -27 6 -30 0 -4 -6
-13 -7 -23 -1 -11 6 -24 6 -34 0 -10 -6 -19 -6 -23 0 -4 7 -15 7 -30 1 -15 -6
-25 -6 -25 0 0 5 -12 5 -30 0 -17 -5 -30 -6 -30 -2 0 4 -38 7 -85 7 -47 0 -85
-3 -85 -7 0 -4 -11 -3 -25 2 -15 6 -27 6 -30 0 -3 -6 -15 -6 -30 0 -15 6 -27
6 -30 0 -4 -6 -13 -7 -23 -1 -11 6 -24 6 -34 0 -10 -6 -19 -6 -23 0 -4 7 -15
7 -30 1 -15 -6 -25 -6 -25 0 0 5 -12 5 -30 0 -16 -5 -30 -6 -30 -2 0 4 -38 7
-85 7 -47 0 -85 -3 -85 -7 0 -4 -11 -3 -25 2 -15 6 -27 6 -30 0 -3 -6 -15 -6
-30 0 -15 6 -27 6 -30 0 -4 -6 -13 -7 -24 -1 -10 6 -23 6 -31 1 -8 -5 -18 -6
-24 -3 -13 9 -66 9 -66 1 0 -4 -14 -3 -30 2 -36 10 -38 10 -67 -1 -13 -5 -23
-5 -23 -1 0 4 -13 7 -30 7 -16 0 -30 -3 -30 -7 0 -4 -13 -3 -29 2 -15 4 -34 4
-42 0 -7 -5 -18 -6 -23 -3 -13 9 -142 7 -155 -2 -6 -3 -11 -3 -11 2 0 4 -13 8
-30 8 -16 0 -30 -3 -30 -7 0 -4 -13 -3 -29 2 -15 4 -34 4 -42 0 -7 -5 -18 -6
-23 -3 -13 9 -142 7 -155 -2 -6 -3 -11 -3 -11 2 0 4 -13 8 -30 8 -16 0 -30 -3
-30 -7 0 -4 -13 -3 -29 2 -15 4 -34 4 -42 0 -7 -5 -18 -6 -23 -3 -13 9 -142 7
-155 -2 -6 -3 -11 -3 -11 2 0 4 -13 8 -30 8 -16 0 -30 -3 -30 -7 0 -4 -13 -3
-29 2 -15 4 -34 4 -42 0 -7 -5 -18 -6 -24 -2 -11 7 -116 5 -123 -3 -3 -2 -12
0 -21 5 -10 5 -23 5 -31 0 -7 -4 -24 -4 -36 0 -14 6 -26 5 -29 0 -4 -6 -13 -7
-24 -1 -10 6 -23 6 -31 1 -8 -5 -21 -5 -30 0 -9 5 -23 4 -32 -1 -10 -6 -19 -6
-23 0 -3 6 -15 7 -28 2 -12 -5 -32 -5 -44 0 -13 5 -25 4 -28 -1 -4 -6 -13 -7
-24 -1 -10 6 -23 6 -31 1 -8 -5 -21 -5 -30 0 -9 5 -23 4 -32 -1 -10 -6 -19 -6
-23 0 -3 7 -15 7 -30 1 -15 -6 -27 -6 -30 0 -3 6 -15 6 -30 0 -14 -5 -25 -6
-25 -2 0 4 -38 7 -85 7 -47 0 -85 -3 -85 -7 0 -4 -11 -3 -25 2 -15 6 -26 6
-30 0 -4 -6 -13 -7 -23 -1 -10 5 -24 6 -33 1 -8 -5 -21 -5 -29 0 -8 5 -21 5
-31 -1 -11 -6 -20 -5 -24 1 -3 6 -15 6 -30 0 -15 -6 -27 -6 -30 0 -3 6 -15 6
-30 0 -14 -5 -25 -6 -25 -2 0 4 -38 7 -85 7 -47 0 -85 -3 -85 -7 0 -4 -11 -3
-25 2 -15 6 -26 6 -30 0 -4 -6 -13 -7 -24 -1 -10 6 -23 6 -31 1 -8 -5 -21 -5
-30 0 -9 5 -23 4 -32 -1 -10 -6 -19 -6 -23 0 -3 7 -15 7 -30 1 -15 -6 -27 -6
-30 0 -3 6 -15 6 -30 0 -14 -5 -25 -6 -25 -2 0 4 -38 7 -85 7 -47 0 -85 -3
-85 -7 0 -4 -11 -3 -25 2 -15 6 -26 6 -30 0 -4 -6 -13 -7 -23 -1 -10 5 -24 6
-33 1 -8 -5 -21 -5 -29 0 -8 5 -21 5 -31 -1 -11 -6 -20 -5 -24 1 -3 6 -15 6
-30 0 -15 -6 -27 -6 -30 0 -3 6 -15 6 -30 0 -14 -5 -25 -6 -25 -2 0 4 -38 7
-85 7 -47 0 -85 -2 -85 -5z"/>
</g>
</svg>
